PathFileType	4	(X/Y/Z)	57_2_74_p1_0-531_filt_butterworth.trc
DataRate	CameraRate	NumFrames	NumMarkers	Units	OrigDataRate	OrigDataStartFrame	OrigNumFrames
59.0	59.0	7	27	m	59.0	0	531
Frame#	Time	RHip			RKnee			RAnkle			RBigToe			RSmallToe			RHeel			LHip			LKnee			LAnkle			LBigToe			LSmallToe			LHeel			Neck			Head			Nose			RShoulder			RElbow			RWrist			RThumb			RIndex			RPinky			LShoulder			LElbow			LWrist			LThumb			LIndex			LPinky			
		X1	Y1	Z1	X2	Y2	Z2	X3	Y3	Z3	X4	Y4	Z4	X5	Y5	Z5	X6	Y6	Z6	X7	Y7	Z7	X8	Y8	Z8	X9	Y9	Z9	X10	Y10	Z10	X11	Y11	Z11	X12	Y12	Z12	X13	Y13	Z13	X14	Y14	Z14	X15	Y15	Z15	X16	Y16	Z16	X17	Y17	Z17	X18	Y18	Z18	X19	Y19	Z19	X20	Y20	Z20	X21	Y21	Z21	X22	Y22	Z22	X23	Y23	Z23	X24	Y24	Z24	X25	Y25	Z25	X26	Y26	Z26	X27	Y27	Z27	
0	0.0	0.24598699073193833	0.5815244989148278	0.9750743638876918	0.2578335584493657	0.7191921516939008	1.3496477902492467	0.24923907319751545	0.9182353849107641	1.7702187444866446	0.23709091182232606	0.69682177524586	1.8131309292982825	0.2956864400584761	0.753827091499321	1.8137409915835077	0.2350644384785282	0.9957044288114052	1.8095252690132688	0.0281310852049854	0.5719979631564532	0.9876238998091353	0.0453664675664803	0.7079481429237007	1.3633666602157337	0.06663208130773385	0.8809549744377461	1.7684888778963905	0.08481142898806558	0.6730827438612151	1.8012301379788602	0.028153220697796914	0.7475671012322597	1.8246966757517646	0.07860884862205533	0.9593471683981571	1.8106528907069528	0.12741466502307638	0.4012358395361984	0.4415008373141447	0.12449176979185553	0.31064994611297037	0.22621305709185857	0.09720153931595138	0.2441682632542427	0.36358935914694135	0.2844538996106643	0.40388101308451546	0.518894235574642	0.3230459226087042	0.476678652118252	0.7735352623094607	0.23443391998931407	0.4288017650159812	0.9988572147553749	0.17005812870002854	0.4253998718003761	1.0924356948866656	0.1666056619402064	0.43815189895931717	1.0973416606655408	0.1664562594997784	0.46928791764709626	1.0953778970196004	-0.0282988221258653	0.3979720996862093	0.5289595943194012	-0.03332137217401463	0.44706412866924994	0.7917020698005302	0.09089482182330982	0.45126609098308323	1.0062788140542493	0.18228836860705097	0.3800188087661415	1.0393288732679653	0.18054459777632587	0.4034021259756124	1.0841725244641878	0.1464579062948409	0.44621634210317684	1.0991046268128546
1	0.0169491525423728	0.24801363230050122	0.5827332107404091	0.9798862014143204	0.25773452021279397	0.7226837396756538	1.3592131859037502	0.24900171384076933	0.917622244573318	1.7690743522205703	0.2391505486008357	0.7061129205076708	1.8155541162492668	0.29753766283020205	0.7448963993750755	1.8106214343496607	0.2399927947823214	0.9951294400784025	1.8060025848143013	0.025489805983530203	0.5802966960104863	0.9904542810724242	0.045546591862994555	0.7076429888418515	1.3644009025361528	0.06632635858726096	0.8784315881165666	1.7648316199921137	0.08656399852407079	0.6809505076243781	1.803247295022879	0.030180638376981567	0.7466554616178849	1.8216746549839846	0.07873636573207288	0.9613695184160225	1.8109308461319138	0.1276959247465787	0.40246081154480245	0.4436580540709255	0.12437109517536969	0.3097129585771232	0.22401371424973318	0.09817186114810159	0.24441965943396216	0.363486227208014	0.2844268479281242	0.4038268156752542	0.518961485619849	0.318861742741288	0.4726973046114119	0.7763111910083145	0.23198600501638553	0.42846768872656477	0.9991388083194783	0.16984636211363238	0.4259869941266444	1.0925836029921856	0.16412875540586214	0.43935900911844855	1.0976315861903365	0.16408409782944425	0.46502912956293396	1.0950966603784507	-0.02932386541821367	0.40076220469007956	0.5286609320390586	-0.03434780694724815	0.4465897848795552	0.7917985307353314	0.09095339929775088	0.45094854339960216	1.0062852075114188	0.17873955675448536	0.3900769682988663	1.0463536402212594	0.1777510474105509	0.41277949497800015	1.0855643333139038	0.14381481227990112	0.4438226797052733	1.0978173046182378
2	0.0338983050847457	0.24846277260305444	0.58330374796539	0.9827965106831257	0.2577739599478228	0.7253253648320301	1.366732999678579	0.24904043104721982	0.9176480992015926	1.7685805275219684	0.2403833083629638	0.7116621749317038	1.8169706873849447	0.2986188687878608	0.7393897488678666	1.8086906040699955	0.24292824970594865	0.9948005052317077	1.803902586920426	0.02383353242393401	0.5850621686232022	0.9921652027908816	0.045637608431708714	0.7075337525068082	1.3648696062805996	0.06613495400361116	0.8771336891439432	1.7637654302876675	0.08729680386941939	0.6841906847804546	1.8040694817120921	0.03143486962286289	0.7461024073649295	1.8197776231990657	0.07885061574096389	0.9619081955584409	1.8109597253342942	0.12787072441693315	0.40318321649396405	0.44494989704145427	0.12399030938251152	0.30802565926455855	0.22308838669177122	0.09784628852413169	0.24433059568056298	0.36354610064717907	0.28439751096342486	0.40372745961981077	0.5189495460882522	0.3158774438428534	0.46860359363689236	0.7780616554582214	0.23051392589533912	0.4282462659597662	0.9992729510901314	0.16977102376850317	0.426519360594546	1.092712550196356	0.16270285555852967	0.4402243196284699	1.097852035116144	0.16156985824843925	0.46083621657111806	1.0949100805821945	-0.029293484179704038	0.40065634030100206	0.5286654253530682	-0.03446141997058771	0.446390849865475	0.7917956941944694	0.09098537107962484	0.4507356790880594	1.0062798123870245	0.1766774916664767	0.3961377357459157	1.0505146303244421	0.17607209021910059	0.41846202692938617	1.0860727332082407	0.14212160347692415	0.44217355354928867	1.0967069846251238
3	0.0508474576271186	0.2474393836352885	0.5832269151933571	0.983647321257689	0.25779695697369814	0.7263842084090432	1.3703646177709017	0.24930941007030732	0.9179040382157071	1.7680670780302714	0.240808378488392	0.7128623593824908	1.8172988578132934	0.29888128500203626	0.7375809173875724	1.8081764427949016	0.24371185364724438	0.9947021820180876	1.8033044630421589	0.0233177747207	0.5864704292492662	0.992645495294737	0.045609353771388	0.7076336701973187	1.364558145359217	0.06599693513142935	0.8770060165763113	1.764353641323953	0.08705205256696075	0.6830581097526613	1.8037685208919667	0.031918287333965435	0.7462326346011683	1.8191295750485401	0.07932358503821439	0.9596115437187075	1.8103726127709352	0.12793406994095802	0.40336888002062965	0.44532032905837404	0.12318766481111958	0.30504843825708994	0.22390680695506388	0.09629416045753454	0.24392821328296768	0.36376376143892375	0.28432920606540174	0.4034512568094041	0.518641134008915	0.31456167431941817	0.46544619947554444	0.7786490180551419	0.23009687811744817	0.42814257431651914	0.9992490062678009	0.16972307400083506	0.42686263617690984	1.0927984097207788	0.16232017447418248	0.4405378445127976	1.0979422905782572	0.1594063683358385	0.4578159197633584	1.0948329492589735	-0.02866325052263513	0.3989633402993804	0.5288298012842948	-0.033906679411561585	0.4466605922129476	0.7917072529542568	0.09098311612672703	0.4506351545010438	1.0062676174595373	0.17612431078584898	0.39778363307767395	1.0516234787997025	0.17554999216095324	0.4201391943402502	1.0858746710893525	0.1412350545668579	0.4412292182136552	1.0960398835877505
4	0.0677966101694915	0.24630384443358574	0.582949449423587	0.9834631691937629	0.25765566043335797	0.725688868534121	1.3696569031080068	0.24964187654745643	0.9176947465090797	1.7669975995606206	0.24095229594603462	0.7108701759282641	1.8171265924610451	0.29883949162738865	0.7377708067147316	1.808801017544436	0.2434505714812461	0.9946750648247882	1.8033860476894854	0.02373242191225332	0.5875832340253059	0.9924964477255316	0.045525006008519234	0.707775433761985	1.3639166199922275	0.06576812357059664	0.8773003126428432	1.7641499635265436	0.08639739901346744	0.6801434649516992	1.8030089862191871	0.0320246323606369	0.7470804382143941	1.8192931891046784	0.08052970890401139	0.9539767113321982	1.8089267011931849	0.1279455806862591	0.4032952080090162	0.4452609963648726	0.12219043900611021	0.30156265798235626	0.2259309667506738	0.09454638171261323	0.24347944748763878	0.3640035793640875	0.28417645046570716	0.40287194115402053	0.5178562270159726	0.31444815624157524	0.46391854366123925	0.7786147816473664	0.23021355524693687	0.42808292919693836	0.9992450527003797	0.16951817289669746	0.42686720225334307	1.0928269983374417	0.16233253899614308	0.44037678892691273	1.0979054317135928	0.15816767127365403	0.45648174708935874	1.094803304947333	-0.028584168718679758	0.3988977617881297	0.5288144395085782	-0.033217157803754255	0.4480674914671841	0.791566592642429	0.09095121514262133	0.4506072192713715	1.0062565068123888	0.17619453567407178	0.3971926500510848	1.051295661488855	0.1755311796347597	0.4196757012882956	1.0855576218977605	0.1403422458608479	0.44036340912364336	1.0958246736923511
5	0.0847457627118644	0.2461594549704708	0.582833050424116	0.9830936714214518	0.25745081435760336	0.7240494463240627	1.3664834404247395	0.24993560193869804	0.9170269309447729	1.7659304258438309	0.2409265974438826	0.7065944476748325	1.8170004745200954	0.29894371240754863	0.7386507095977681	1.8103254077676738	0.2431270996331706	0.9946652927698318	1.803489844682408	0.025120999237383222	0.5908739481252923	0.9922449775300461	0.04545740250376099	0.7078014636843232	1.3635020170843097	0.06546613309049165	0.8775393982337127	1.762375840912364	0.08567142843953293	0.6769170904957266	1.8021572234151464	0.03174275073826518	0.7480619284118472	1.8201175845770337	0.08214201525945823	0.9469084948942035	1.807062628342274	0.12794862096948653	0.40318851251772847	0.44516370862087973	0.1214756020118318	0.29921275415211634	0.2280108959724023	0.09346251743480216	0.24318415746559452	0.36413000664441986	0.28396625606381654	0.4021138148861977	0.5168157989284625	0.31463991187788326	0.46383103660462954	0.7784660220201506	0.2304277620801991	0.4280136717867557	0.9996041498786266	0.16923636089387026	0.42660659073508544	1.092815485689319	0.16232459068174385	0.4401087461758042	1.097825022322504	0.15781382524835516	0.45614745024716535	1.0947588065202942	-0.029560974058609135	0.4018122991411073	0.528479200300688	-0.0324218172575436	0.4513337374142136	0.7913631519787827	0.09090366837904004	0.45066434343507844	1.0062395255975796	0.1762893654963219	0.39635554999339917	1.0508406921718612	0.175566016323823	0.4187515853122957	1.0853618364695286	0.13918496541460743	0.4393436226237169	1.095808419604701
6	0.1016949152542373	0.2471739760289772	0.5829493221514536	0.9828310254898731	0.2573610257374462	0.7226968680002853	1.3636088616266073	0.25011883767634685	0.9163718288001047	1.7654149659861331	0.24007148112300716	0.7015058721506857	1.817156428143535	0.2992235057125874	0.7396032753995136	1.8121858144720808	0.24320414291265707	0.994794798937543	1.8034516400314788	0.02735297221032943	0.5957941237596204	0.9920815896368169	0.04541137140824157	0.7077054499924761	1.3634006698312235	0.06527343713007505	0.877557262998831	1.7599302065625806	0.08510126366075359	0.6743860432080185	1.8014760387994442	0.030810563537695235	0.748287050493987	1.8215414049570189	0.08337165708479857	0.9418025877617028	1.8056940840376892	0.12795374803893086	0.40312559155614386	0.44513974653144256	0.12121834977306487	0.2985092648209793	0.22925447259592385	0.09308019899385395	0.243058463996272	0.36413013692925045	0.28379468781880957	0.4015020575443958	0.516020345827614	0.3143866974218378	0.46547825772268103	0.7783794137915551	0.23054789538305984	0.4279482633583894	1.0005580335710418	0.16910060175868294	0.4263849193006505	1.0927993201600361	0.1622588429939261	0.44007880210111594	1.0977801511181828	0.15787917301919485	0.4561623544016554	1.0946716168358082	-0.031127036171873027	0.4062465652385089	0.5279826682814425	-0.03155112640948063	0.45563451559912593	0.7911299779176032	0.09086478003834057	0.45087422827468265	1.0062015194754392	0.1763224712250462	0.39600566827524675	1.0506716010009003	0.17558589999856977	0.4182142099749676	1.0852813296289434	0.13823793758043965	0.43856772705468583	1.0958092092335683
